<svg id="OBJECTS" xmlns="http://www.w3.org/2000/svg" viewBox="0 0 448.36 254.15"><defs><style>.cls-1{fill:#ffe4da;}.cls-2,.cls-3,.cls-5{fill:#4d4b54;}.cls-3{font-size:72.51px;font-family:Calibri-Bold, Calibri;font-weight:700;letter-spacing:0.09em;}.cls-4{letter-spacing:0.08em;}.cls-5{font-size:40.1px;font-family:Calibri-Light, Calibri;font-weight:300;letter-spacing:0.34em;}</style></defs><title>UrbanLiving Logo</title><path class="cls-1" d="M563.39,244.24a52.77,52.77,0,0,1-22.74,22.85c-22.48,12-48.77,9-72.47,2.65-24.9-6.66-45.48-5-71.63,1.05-23.17,5.35-29.73,10.1-47,25.39-18.25,16.24-37.65,24-61.18,31.28s-67.14,13-89.32,1.69c-19.37-9.92-32.05-18.32-38.65-39-7.71-24.29-5.48-50.68-14.47-74.67-8.08-21.49-24.58-40.63-25-64.55-.43-23.37,14.87-44.11,34.46-55.5C176.62,83.1,202.52,79.86,226.64,82c25.11,2.23,49.42,10.34,71.68,22,11.12,5.84,21.75,12.7,33.21,17.92A82.76,82.76,0,0,0,367,129.71c23.7-.23,46.28-9,69-14.54,12-2.92,24.29-4.89,36.46-4.6a97.85,97.85,0,0,1,25.11.46,68.67,68.67,0,0,1,31.05,13.2,86.17,86.17,0,0,1,20.54,23.56,135.69,135.69,0,0,1,13.13,29.37,137.92,137.92,0,0,1,6.79,33.71C569.82,222.26,568.45,233.94,563.39,244.24Z" transform="translate(-120.92 -81.38)"/><polygon class="cls-2" points="405.1 172.85 47.8 172.85 47.8 73.33 63.87 73.33 63.87 76.94 51.29 76.94 51.29 169.25 401.61 169.25 401.61 76.94 324.08 76.94 324.08 73.33 405.1 73.33 405.1 172.85"/><text class="cls-3" transform="translate(69.19 107.95)">UR<tspan class="cls-4" x="101.21" y="0">B</tspan><tspan x="147.67" y="0">AN</tspan></text><text class="cls-5" transform="translate(70.92 156.14)">LIVING</text><rect class="cls-2" x="260.43" y="142.46" width="129.5" height="1.68"/></svg>