<svg id="OBJECTS" xmlns="http://www.w3.org/2000/svg" viewBox="0 0 486.57 293.92"><defs><style>.cls-1,.cls-3,.cls-5{fill:#4d4b54;}.cls-2{fill:#ffe4da;}.cls-3{font-size:72.51px;font-family:Calibri-Bold, Calibri;font-weight:700;letter-spacing:0.09em;}.cls-4{letter-spacing:0.08em;}.cls-5{font-size:40.1px;font-family:Calibri-Light, Calibri;font-weight:300;letter-spacing:0.34em;}</style></defs><title>UrbanLiving Logo2</title><path class="cls-1" d="M581.65,249.18A59.63,59.63,0,0,1,557,275.87c-24.4,14-64,15.21-89.69,7.8-27-7.78-39.28-7.54-67.7,1-25.07,7.55-24.58,9.6-46,25.77-21.89,16.54-44.86,27.44-70.39,36s-72,9.46-97.36-3.65c-20.75-10.71-29.81-15.66-39.41-40.93-10.51-27.66-8.06-58.29-17.82-86.33-8.76-25.12-26.67-47.48-27.14-75.45-.46-27.31,16.14-51.55,37.4-64.86C161.92,60.83,190,57,216.2,59.53c27.25,2.61,53.64,12.08,77.78,25.74,12.08,6.82,23.62,14.84,36,20.94,12.21,6,31.54,7.34,45,7.19,25.71-.27,43.71-8.61,68.43-15.09,13-3.42,30.35-9,43.56-8.66,9-1,18.13,1,27.28,2.53,12.26,2.11,19.83,8.58,29.66,16.72,9,7.51,16.39,17.07,22.3,27.54a165.06,165.06,0,0,1,14.25,34.33,172.15,172.15,0,0,1,7.37,39.39C588.63,223.47,587.14,237.13,581.65,249.18Z" transform="translate(-101.47 -58.82)"/><path class="cls-2" d="M563.39,244.24a52.77,52.77,0,0,1-22.74,22.85c-22.48,12-48.77,9-72.47,2.65-24.9-6.66-45.48-5-71.63,1.05-23.17,5.35-29.73,10.1-47,25.39-18.25,16.24-37.65,24-61.18,31.28s-67.14,13-89.32,1.69c-19.37-9.92-32.05-18.32-38.65-39-7.71-24.29-5.48-50.68-14.47-74.67-8.08-21.49-24.58-40.63-25-64.55-.43-23.37,14.87-44.11,34.46-55.5C176.62,83.1,202.52,79.86,226.64,82c25.11,2.23,49.42,10.34,71.68,22,11.12,5.84,21.75,12.7,33.21,17.92A82.76,82.76,0,0,0,367,129.71c23.7-.23,46.28-9,69-14.54,12-2.92,24.29-4.89,36.46-4.6a97.85,97.85,0,0,1,25.11.46,68.67,68.67,0,0,1,31.05,13.2,86.17,86.17,0,0,1,20.54,23.56,135.69,135.69,0,0,1,13.13,29.37,137.92,137.92,0,0,1,6.79,33.71C569.82,222.26,568.45,233.94,563.39,244.24Z" transform="translate(-101.47 -58.82)"/><polygon class="cls-1" points="424.55 195.42 67.25 195.42 67.25 95.89 83.32 95.89 83.32 99.5 70.73 99.5 70.73 191.81 421.06 191.81 421.06 99.5 343.53 99.5 343.53 95.89 424.55 95.89 424.55 195.42"/><text class="cls-3" transform="translate(88.63 130.51)">UR<tspan class="cls-4" x="101.21" y="0">B</tspan><tspan x="147.67" y="0">AN</tspan></text><text class="cls-5" transform="translate(90.37 178.71)">LIVING</text><rect class="cls-1" x="279.88" y="165.03" width="129.5" height="1.68"/></svg>