<?xml version="1.0" encoding="utf-8"?>
<!-- Generator: Adobe Illustrator 24.0.2, SVG Export Plug-In . SVG Version: 6.00 Build 0)  -->
<svg version="1.1" id="OBJECTS" xmlns="http://www.w3.org/2000/svg" xmlns:xlink="http://www.w3.org/1999/xlink" x="0px" y="0px"
	 viewBox="0 0 750 500" style="enable-background:new 0 0 750 500;" xml:space="preserve">
<style type="text/css">
	.st0{fill:#4D4B54;}
	.st1{fill:#FFE4DA;}
	.st2{font-family:'Calibri-Bold';}
	.st3{font-size:72.5091px;}
	.st4{letter-spacing:6;}
	.st5{font-family:'Calibri-Light';}
	.st6{font-size:40.0983px;}
	.st7{letter-spacing:13;}
</style>
<g>
	<path class="st0" d="M563.39,244.24c-4.86,9.88-13.09,17.69-22.74,22.84c-22.48,11.98-48.77,8.99-72.46,2.66
		c-24.91-6.66-45.49-4.99-71.64,1.04c-23.16,5.35-29.73,10.1-46.99,25.39c-18.25,16.25-37.64,23.96-61.18,31.28
		c-23.4,7.25-67.14,13.01-89.33,1.69c-19.36-9.91-32.05-18.31-38.65-39.02c-7.71-24.29-5.48-50.67-14.47-74.66
		c-8.07-21.5-24.58-40.63-25.01-64.55c-0.43-23.37,14.87-44.11,34.46-55.5c21.23-12.31,47.13-15.56,71.25-13.42
		c25.11,2.23,49.42,10.34,71.68,22.02c11.13,5.84,21.76,12.7,33.21,17.92c11.26,5.12,23.07,7.91,35.44,7.78
		c23.7-0.23,46.27-8.99,69.05-14.54c12.01-2.92,24.29-4.89,36.46-4.59c8.3-0.85,16.67-0.85,25.11,0.46
		c11.29,1.81,21.99,6.24,31.05,13.19c8.3,6.43,15.1,14.6,20.54,23.56c5.61,9.16,9.85,19.17,13.13,29.37
		c3.51,10.93,6.1,22.25,6.79,33.7C569.82,222.26,568.45,233.94,563.39,244.24z"/>
	<g>
		<g>
			<polygon class="st1" points="526.02,254.24 168.72,254.24 168.72,154.71 184.79,154.71 184.79,158.32 172.21,158.32 
				172.21,250.63 522.53,250.63 522.53,158.32 445,158.32 445,154.71 526.02,154.71 			"/>
		</g>
		<text transform="matrix(1 0 0 1 190.1064 189.3262)" class="st1 st2 st3 st4">URBAN</text>
		<text transform="matrix(1 0 0 1 191.8418 237.5244)" class="st1 st5 st6 st7">LIVING</text>
		<g>
			<rect x="381.35" y="223.84" class="st1" width="129.5" height="1.68"/>
		</g>
	</g>
</g>
</svg>
